<svg xmlns="http://www.w3.org/2000/svg" viewBox="0 0 64 64">
  <defs>
    <linearGradient id="g" x1="0" y1="0" x2="1" y2="1">
      <stop offset="0" stop-color="#d76a37" />
      <stop offset="1" stop-color="#2f6b59" />
    </linearGradient>
  </defs>
  <rect width="64" height="64" rx="14" fill="url(#g)" />

  <path d="M14 23l9-12 9 10H14z" fill="#fff0d9" />
  <path d="M50 23l-9-12-9 10h18z" fill="#fff0d9" />

  <ellipse cx="32" cy="37" rx="17" ry="14" fill="#fffaf2" />

  <circle cx="26" cy="35" r="2.2" fill="#1f1a16" />
  <circle cx="38" cy="35" r="2.2" fill="#1f1a16" />

  <path d="M32 38l-3 3h6l-3-3z" fill="#cf5d2f" />
  <path d="M32 41v3" stroke="#1f1a16" stroke-width="1.8" stroke-linecap="round" />
  <path d="M28 46c1.8 1.2 6.2 1.2 8 0" fill="none" stroke="#1f1a16" stroke-width="1.8" stroke-linecap="round" />

  <path d="M12 39h11" stroke="#1f1a16" stroke-width="1.6" stroke-linecap="round" />
  <path d="M13 43h10" stroke="#1f1a16" stroke-width="1.6" stroke-linecap="round" />
  <path d="M52 39H41" stroke="#1f1a16" stroke-width="1.6" stroke-linecap="round" />
  <path d="M51 43H41" stroke="#1f1a16" stroke-width="1.6" stroke-linecap="round" />
</svg>
